<?xml version="1.0" standalone="no"?><!DOCTYPE svg PUBLIC "-//W3C//DTD SVG 1.1//EN" "http://www.w3.org/Graphics/SVG/1.1/DTD/svg11.dtd"><svg t="1678681110212" class="icon" viewBox="0 0 1033 1024" version="1.1" xmlns="http://www.w3.org/2000/svg" p-id="16718" xmlns:xlink="http://www.w3.org/1999/xlink" width="1033" height="1024"><path d="M481.546468 884.865428c-66.6171-4.377695-137.992565-30.072862-193.950929-69.852789-20.936803-14.846097-59.95539-51.771004-76.704833-72.517472-59.95539-74.230483-90.028253-164.639405-86.60223-259.997026 2.855019-76.133829 23.791822-141.418587 65.855762-203.848327 109.632714-163.497398 324.330112-218.694424 500.960595-128.856505 115.152416 58.432714 194.331599 173.014126 209.177695 302.251301 2.474349 22.07881 2.474349 67.949442 0 88.505576-9.326394 76.133829-40.160595 148.270632-89.07658 208.035688-11.420074 14.084758-41.683271 42.44461-60.33606 56.719702-75.943494 58.242379-169.968773 86.031227-269.32342 79.559852z" fill="#253255" p-id="16719"></path><path d="M481.546468 884.865428c-66.6171-4.377695-137.992565-30.072862-193.950929-69.852789-20.936803-14.846097-59.95539-51.771004-76.704833-72.517472-59.95539-74.230483-90.028253-164.639405-86.60223-259.997026 2.855019-76.133829 23.791822-141.418587 65.855762-203.848327 109.632714-163.497398 324.330112-218.694424 500.960595-128.856505 115.152416 58.432714 194.331599 173.014126 209.177695 302.251301 2.474349 22.07881 2.474349 67.949442 0 88.505576-9.326394 76.133829-40.160595 148.270632-89.07658 208.035688-11.420074 14.084758-41.683271 42.44461-60.33606 56.719702-75.943494 58.242379-169.968773 86.031227-269.32342 79.559852z m164.639406-352.689963c16.749442-6.471375 18.652788-7.613383 31.214869-20.175465 60.336059-60.145725 11.991078-135.137546-103.161338-160.26171-17.130112-3.806691-24.933829-4.187361-65.094424-4.187361s-47.964312 0.380669-65.094423 4.187361c-98.022305 21.317472-149.793309 79.369517-121.433458 135.70855 2.664684 5.329368 7.803717 13.32342 11.610409 17.89145 8.374721 10.278067 25.695167 23.791822 30.453532 23.791822 1.903346 0 7.042379 1.713011 11.22974 3.806691 7.232714 3.426022 13.32342 3.426022 134.185873 3.235688 119.149442-0.380669 127.143494-0.571004 136.08922-3.997026z" fill="#54A398" p-id="16720"></path><path d="M384.475836 500.960595c-14.084758-7.423048-24.743494-32.356877-22.07881-51.390335 2.284015-17.510781 11.991078-32.927881 23.411152-37.686245 18.652788-7.994052 38.447584 3.426022 45.299629 26.266171 11.800743 39.779926-16.939777 78.417844-46.631971 62.810409zM607.928625 501.721933c-24.55316-11.039405-31.595539-57.86171-11.800744-80.32119 8.565056-9.707063 15.607435-12.752416 26.64684-11.800743 15.4171 1.522677 25.504833 11.991078 31.21487 31.785874 5.710037 19.414126-1.522677 45.870632-15.607435 56.719702-7.994052 5.900372-21.698141 7.613383-30.453531 3.616357z" fill="#54A398" p-id="16721"></path><path d="M481.546468 884.865428c-66.6171-4.377695-137.992565-30.072862-193.950929-69.852789-20.936803-14.846097-59.95539-51.771004-76.704833-72.517472-59.95539-74.230483-90.028253-164.639405-86.60223-259.997026 2.855019-76.133829 23.791822-141.418587 65.855762-203.848327 109.632714-163.497398 324.330112-218.694424 500.960595-128.856505 115.152416 58.432714 194.331599 173.014126 209.177695 302.251301 2.474349 22.07881 2.474349 67.949442 0 88.505576-9.326394 76.133829-40.160595 148.270632-89.07658 208.035688-11.420074 14.084758-41.683271 42.44461-60.33606 56.719702-75.943494 58.242379-169.968773 86.031227-269.32342 79.559852z m164.639406-352.689963c16.749442-6.471375 18.652788-7.613383 31.214869-20.175465 60.336059-60.145725 11.991078-135.137546-103.161338-160.26171-17.130112-3.806691-24.933829-4.187361-65.094424-4.187361s-47.964312 0.380669-65.094423 4.187361c-98.022305 21.317472-149.793309 79.369517-121.433458 135.70855 2.664684 5.329368 7.803717 13.32342 11.610409 17.89145 8.374721 10.278067 25.695167 23.791822 30.453532 23.791822 1.903346 0 7.042379 1.713011 11.22974 3.806691 7.232714 3.426022 13.32342 3.426022 134.185873 3.235688 119.149442-0.380669 127.143494-0.571004 136.08922-3.997026z" fill="#F5C844" p-id="16722"></path><path d="M481.546468 884.865428c-51.580669-3.426022-111.916729-21.317472-158.358364-47.202974-37.87658-21.127138-66.046097-44.728625-104.874349-88.124908-13.32342-14.846097-14.655762-17.130112-12.371748-20.175464 1.332342-1.903346 7.613383-9.707063 13.70409-17.130112l11.420074-13.704089h25.314498c23.220818 0 25.504833-0.380669 27.598513-3.806691 2.09368-3.235688 4.56803-3.806691 14.275093-3.806692h11.800744l11.991078-19.98513 11.991078-19.98513 6.66171 1.142007c6.66171 0.951673 6.66171 0.951673 13.32342-11.610409 6.281041-12.181413 6.471375-12.942751 3.045353-15.036431-34.260223-20.746468-61.287732-43.776952-79.369517-67.759108-35.592565-47.202974-43.776952-108.871375-21.698141-163.307063 37.115242-91.360595 161.213383-154.171004 283.408178-143.131598 102.590335 9.136059 185.766543 56.719703 223.833458 128.095167 12.181413 22.840149 17.510781 42.44461 18.462453 69.281784 1.142007 24.743494-0.571004 38.257249-7.423048 59.574722-14.275093 44.347955-53.103346 88.124907-101.638662 115.152416-7.232714 3.997026-13.32342 7.423048-13.704089 7.613383-0.380669 0.380669 2.09368 5.900372 5.329368 12.371747 4.377695 8.565056 6.66171 11.420074 8.945725 10.658736 10.087732-3.997026 10.658736-3.616357 21.127137 12.181413l9.897398 15.226766h12.752417c10.278067 0 13.513755 0.761338 16.939777 3.997026 3.997026 3.806691 4.56803 3.806691 20.936802 0.951672 9.326394-1.713011 18.843123-3.045353 20.936803-3.045353 4.187361 0 48.725651 39.779926 49.867658 44.347956 1.522677 7.232714-52.532342 61.858736-82.605204 83.366542-43.776952 31.405204-102.019331 56.529368-155.884015 67.188104-33.118216 6.471375-71.946468 8.945725-105.635688 6.661711z m164.639406-352.689963c16.749442-6.471375 18.652788-7.613383 31.214869-20.175465 60.336059-60.145725 11.991078-135.137546-103.161338-160.26171-17.130112-3.806691-24.933829-4.187361-65.094424-4.187361s-47.964312 0.380669-65.094423 4.187361c-98.022305 21.317472-149.793309 79.369517-121.433458 135.70855 2.664684 5.329368 7.803717 13.32342 11.610409 17.89145 8.374721 10.278067 25.695167 23.791822 30.453532 23.791822 1.903346 0 7.042379 1.713011 11.22974 3.806691 7.232714 3.426022 13.32342 3.426022 134.185873 3.235688 119.149442-0.380669 127.143494-0.571004 136.08922-3.997026z" fill="#D6B66E" p-id="16723"></path><path d="M453.947955 881.820074c-2.09368-0.380669-10.658736-2.09368-19.033457-3.616357-36.544238-7.042379-78.988848-22.45948-111.726394-40.541263-37.87658-21.127138-66.046097-44.728625-104.874349-88.124908-13.32342-14.846097-14.655762-17.130112-12.371748-20.175464 1.332342-1.903346 7.613383-9.707063 13.70409-17.130112l11.420074-13.704089h25.314498c23.220818 0 25.504833-0.380669 27.598513-3.806691 2.09368-3.235688 4.56803-3.806691 14.275093-3.806692h11.800744l11.610409-19.414126c6.471375-10.849071 12.181413-19.794796 12.371747-20.175465 0.380669-0.380669 29.12119 8.374721 64.142751 19.414126 34.831227 11.039405 68.710781 21.698141 75.182156 23.601487l11.800743 3.806692 5.139034-15.607435c2.855019-8.374721 5.519703-16.368773 5.900371-17.510781 0.571004-1.332342-4.758364-2.474349-14.846096-3.426022-68.520446-5.710037-133.995539-33.498885-177.962825-75.75316-39.018587-37.495911-56.719703-74.040149-59.194052-121.433457-3.235688-63.762082 29.12119-121.052788 92.312267-163.307063 55.76803-37.115242 133.043866-56.148699 202.896654-49.867658 102.590335 9.136059 185.766543 56.719703 223.833458 128.095167 12.181413 22.840149 17.510781 42.44461 18.462453 69.281784 1.903346 41.302602-7.423048 72.136803-31.785873 106.777696-40.541264 57.481041-122.004461 99.925651-204.228997 106.206691l-16.559107 1.332342 1.142007 10.658736c0.761338 5.900372 1.713011 13.704089 2.474349 17.510781l1.142008 6.852044 74.230483-23.411152c40.921933-12.942751 74.611152-23.601487 75.182156-23.601487s5.519703 6.852045 11.039405 15.226766l9.897398 15.226766h12.752417c10.278067 0 13.513755 0.761338 16.939777 3.997026 3.997026 3.806691 4.56803 3.806691 20.936802 0.951672 9.326394-1.713011 18.843123-3.045353 20.936803-3.045353 4.187361 0 48.725651 39.779926 49.867658 44.347956 1.522677 7.232714-52.532342 61.858736-82.605204 83.366542-46.822305 33.498885-109.252045 59.384387-167.113755 69.281785-10.278067 1.713011-19.794796 2.664684-21.127137 2.284015-1.332342-0.571004-2.855019-5.519703-3.616357-11.22974-0.761338-5.519703-1.903346-11.991078-2.47435-14.465428l-0.951672-4.18736-40.160595 0.380669-40.160595 0.571004-1.522677 8.565055c-3.806691 22.840149-3.045353 21.698141-11.991078 19.604461z m92.312268-39.779925c0-1.522677-0.951673-8.75539-2.284015-16.178439l-2.09368-13.133085-33.498885 0.380669-33.30855 0.571003-2.47435 11.420075c-1.332342 6.281041-2.284015 13.32342-2.474349 15.797769v4.187361h38.066915c33.118216 0 38.066914-0.380669 38.066914-3.045353z m-6.471375-41.302603c-0.571004-2.474349-1.522677-9.326394-2.284015-15.226765l-1.332342-10.849071h-27.217844c-15.036431 0-27.408178 0.571004-27.408179 1.522677 0 0.761338-1.142007 7.613383-2.664684 15.226765l-2.664684 13.70409h64.713755l-1.142007-4.377696z m-7.04238-44.538289c-0.951673-5.139033-2.09368-11.991078-2.664684-15.226766l-1.142007-6.281041h-19.794796c-21.888476 0-20.556134-0.951673-22.840148 15.226766-0.761338 4.758364-1.713011 10.087732-2.093681 11.991078-0.951673 3.045353 1.142007 3.235688 24.55316 3.235687h25.504833l-1.522677-8.945724z m113.439406-224.023792c16.749442-6.471375 18.652788-7.613383 31.214869-20.175465 60.336059-60.145725 11.991078-135.137546-103.161338-160.26171-17.130112-3.806691-24.933829-4.187361-65.094424-4.187361s-47.964312 0.380669-65.094423 4.187361c-98.022305 21.317472-149.793309 79.369517-121.433458 135.70855 2.664684 5.329368 7.803717 13.32342 11.610409 17.89145 8.374721 10.278067 25.695167 23.791822 30.453532 23.791822 1.903346 0 7.042379 1.713011 11.22974 3.806691 7.232714 3.426022 13.32342 3.426022 134.185873 3.235688 119.149442-0.380669 127.143494-0.571004 136.08922-3.997026z" fill="#D2BFC5" p-id="16724"></path><path d="M453.947955 881.820074c-2.09368-0.380669-10.658736-2.09368-19.033457-3.616357-62.810409-11.991078-128.285502-43.586617-173.014126-83.556877l-10.658736-9.516728 29.311524-47.583644c16.178439-26.075836 34.831227-56.148699 41.112268-66.6171 6.471375-10.468401 12.181413-19.223792 12.371747-19.604461 0.380669-0.380669 29.12119 8.374721 64.142751 19.414126 34.831227 11.039405 68.710781 21.698141 75.182156 23.601487l11.800743 3.806692 5.139034-15.607435c2.855019-8.374721 5.519703-16.368773 5.900371-17.510781 0.571004-1.332342-4.758364-2.474349-14.846096-3.426022-68.520446-5.710037-133.995539-33.498885-177.962825-75.75316-39.018587-37.495911-56.719703-74.040149-59.194052-121.433457-3.235688-63.762082 29.12119-121.052788 92.312267-163.307063 55.76803-37.115242 133.043866-56.148699 202.896654-49.867658 102.590335 9.136059 185.766543 56.719703 223.833458 128.095167 12.181413 22.840149 17.510781 42.44461 18.462453 69.281784 1.903346 41.302602-7.423048 72.136803-31.785873 106.777696-40.541264 57.481041-122.004461 99.925651-204.228997 106.206691l-16.559107 1.332342 1.142007 10.658736c0.761338 5.900372 1.713011 13.704089 2.474349 17.510781l1.142008 6.852044 74.230483-23.411152c40.921933-12.942751 74.611152-23.601487 75.182156-23.601487s5.329368 6.471375 10.468402 14.084758c5.329368 7.803717 25.695167 37.87658 45.489963 66.99777l35.973234 53.103346-9.326394 7.994052c-46.822305 41.302602-121.623792 75.562825-189.953904 87.173234-10.278067 1.713011-19.794796 2.664684-21.127137 2.284015-1.332342-0.571004-2.855019-5.519703-3.616357-11.22974-0.761338-5.519703-1.903346-11.991078-2.47435-14.465428l-0.951672-4.18736-40.160595 0.380669-40.160595 0.571004-1.522677 8.565055c-3.806691 22.840149-3.045353 21.698141-11.991078 19.604461z m92.312268-39.779925c0-1.522677-0.951673-8.75539-2.284015-16.178439l-2.09368-13.133085-33.498885 0.380669-33.30855 0.571003-2.47435 11.420075c-1.332342 6.281041-2.284015 13.32342-2.474349 15.797769v4.187361h38.066915c33.118216 0 38.066914-0.380669 38.066914-3.045353z m-6.471375-41.302603c-0.571004-2.474349-1.522677-9.326394-2.284015-15.226765l-1.332342-10.849071h-27.217844c-15.036431 0-27.408178 0.571004-27.408179 1.522677 0 0.761338-1.142007 7.613383-2.664684 15.226765l-2.664684 13.70409h64.713755l-1.142007-4.377696z m-7.04238-44.538289c-0.951673-5.139033-2.09368-11.991078-2.664684-15.226766l-1.142007-6.281041h-19.794796c-21.888476 0-20.556134-0.951673-22.840148 15.226766-0.761338 4.758364-1.713011 10.087732-2.093681 11.991078-0.951673 3.045353 1.142007 3.235688 24.55316 3.235687h25.504833l-1.522677-8.945724z m107.539034-222.310781c2.855019-1.522677 6.852045-2.855019 8.565056-2.855019 11.039405 0 36.353903-22.840149 45.680297-41.302602 15.607435-30.834201 10.278067-60.716729-15.797769-87.173234-18.462454-18.843123-36.163569-29.12119-71.5658-41.873606-17.320446-6.281041-25.504833-8.184387-48.535316-11.991078-9.897398-1.713011-89.07658-1.713011-98.973977 0-23.030483 3.806691-31.21487 5.710037-48.535316 11.991078-35.40223 12.752416-53.103346 23.030483-71.5658 41.873606-26.075836 26.456506-31.405204 56.339033-15.797769 87.173234 9.326394 18.462454 34.640892 41.302602 45.680297 41.302602 1.713011 0 5.710037 1.332342 8.565056 2.855019 8.184387 4.187361 254.096654 4.187361 262.281041 0z" fill="#FEFDFD" p-id="16725"></path><path d="M234.111524 767.428996c0-0.761338-6.852045-8.945725-15.4171-18.081784-13.704089-14.655762-15.036431-16.939777-12.752417-19.98513 1.332342-1.903346 7.613383-9.707063 13.70409-17.130112l11.420074-13.704089h25.504833c19.794796 0 25.124164 0.571004 23.982156 2.474349-0.761338 1.142007-10.658736 17.130112-22.269145 35.211896-18.462454 28.930855-24.172491 36.353903-24.172491 31.21487zM764.573978 728.600743c-15.4171-20.936803-27.788848-38.447584-27.408179-38.828252s9.707063-2.09368 20.746469-3.997026c23.601487-3.616357 18.652788-5.900372 49.296654 22.840148 18.462454 17.510781 19.414126 18.652788 17.130111 23.030484-3.235688 5.900372-28.359851 35.40223-30.263197 35.211896-0.761338 0-14.084758-17.130112-29.501858-38.25725z" fill="#FEFDFD" p-id="16726"></path></svg>