<?xml version="1.0" standalone="no"?><!DOCTYPE svg PUBLIC "-//W3C//DTD SVG 1.1//EN" "http://www.w3.org/Graphics/SVG/1.1/DTD/svg11.dtd"><svg t="1677999601079" class="icon" viewBox="0 0 1024 1024" version="1.1" xmlns="http://www.w3.org/2000/svg" p-id="6199" width="1024" height="1024" data-spm-anchor-id="a313x.7781069.0.i3" xmlns:xlink="http://www.w3.org/1999/xlink"><path d="M64 661.333333a42.666667 42.666667 0 0 1-42.666667-42.666666v-213.333334a42.666667 42.666667 0 1 1 85.333334 0v213.333334a42.666667 42.666667 0 0 1-42.666667 42.666666zM192 832a42.666667 42.666667 0 0 1-42.666667-42.666667v-554.666666a42.666667 42.666667 0 1 1 85.333334 0v554.666666a42.666667 42.666667 0 0 1-42.666667 42.666667zM320 1002.666667a42.666667 42.666667 0 0 1-42.666667-42.666667v-896a42.666667 42.666667 0 1 1 85.333334 0v896a42.666667 42.666667 0 0 1-42.666667 42.666667zM448 960a42.666667 42.666667 0 0 1-42.666667-42.666667v-810.666666a42.666667 42.666667 0 1 1 85.333334 0v810.666666a42.666667 42.666667 0 0 1-42.666667 42.666667zM576 789.333333a42.666667 42.666667 0 0 1-42.666667-42.666666v-469.333334a42.666667 42.666667 0 1 1 85.333334 0v469.333334a42.666667 42.666667 0 0 1-42.666667 42.666666zM704 960a42.666667 42.666667 0 0 1-42.666667-42.666667v-810.666666a42.666667 42.666667 0 1 1 85.333334 0v810.666666a42.666667 42.666667 0 0 1-42.666667 42.666667zM832 789.333333a42.666667 42.666667 0 0 1-42.666667-42.666666v-469.333334a42.666667 42.666667 0 1 1 85.333334 0v469.333334a42.666667 42.666667 0 0 1-42.666667 42.666666zM960 661.333333a42.666667 42.666667 0 0 1-42.666667-42.666666v-213.333334a42.666667 42.666667 0 1 1 85.333334 0v213.333334a42.666667 42.666667 0 0 1-42.666667 42.666666z" p-id="6200" fill="#dbdbdb"></path></svg>