<?xml version="1.0" standalone="no"?><!DOCTYPE svg PUBLIC "-//W3C//DTD SVG 1.1//EN" "http://www.w3.org/Graphics/SVG/1.1/DTD/svg11.dtd"><svg t="1678803626750" class="icon" viewBox="0 0 1024 1024" version="1.1" xmlns="http://www.w3.org/2000/svg" p-id="10532" xmlns:xlink="http://www.w3.org/1999/xlink" width="1024" height="1024"><path d="M879.64 747.291a52.405 52.405 0 0 1-31.078 10.131h-193.95V619.629a26.328 26.328 0 0 0-13.013-23.231 26.337 26.337 0 0 0-26.632 0 26.34 26.34 0 0 0-13.013 23.231v137.793H450.836V569.698l30.605 31.176a26.002 26.002 0 0 0 37.238 0c10.284-10.551 10.284-27.373 0-37.924h0.005l-74.477-75.855a25.955 25.955 0 0 0-18.786-7.843l-0.553 0.005c-0.121 0-0.239-0.02-0.366-0.02a26.183 26.183 0 0 0-21.945 12.017l-70.384 71.731c-10.271 10.543-10.271 27.363 0.009 37.906a25.994 25.994 0 0 0 18.616 7.856 26.027 26.027 0 0 0 18.617-7.861l28.759-29.313v185.85h-165.34l0.005-0.005a52.503 52.503 0 0 1-34.06-12.485c-43.837-37.229-65.745-94.179-58.148-151.185 7.589-57.006 43.641-106.247 95.688-130.701a26.384 26.384 0 0 0 14.662-18.783c23.952-121.827 124.179-214.035 247.583-227.751 123.4-13.72 241.429 54.215 291.557 167.807a26.364 26.364 0 0 0 18.178 15.015c74.363 17.308 131.843 76.325 147.179 151.116 15.33 74.789-14.289 151.663-75.838 196.84z m-481.466 29.816a26.317 26.317 0 0 0 13.066 23.082 26.336 26.336 0 0 0 26.534 0 26.325 26.325 0 0 0 13.062-23.082v-18.451h-52.662v18.451z m0 0" fill="#AEF4F2" p-id="10533"></path><path d="M474.641 464.847l-74.474-75.852a25.997 25.997 0 0 0-18.779-7.843l-0.557 0.005c-0.122 0-0.238-0.02-0.366-0.02a26.198 26.198 0 0 0-21.944 12.017l-70.386 71.728c-10.269 10.553-10.264 27.368 0.01 37.912a25.982 25.982 0 0 0 37.233 0l28.759-29.321v221.591a26.325 26.325 0 0 0 13.024 23.207 26.334 26.334 0 0 0 39.637-23.207V471.598l30.604 31.181a25.996 25.996 0 0 0 18.616 7.858 26 26 0 0 0 18.622-7.858c10.292-10.55 10.292-27.379 0.001-37.932m28.056 286.911l74.472 75.844a25.98 25.98 0 0 0 18.782 7.854l0.557-0.01c0.122 0 0.234 0.02 0.361 0.02a26.184 26.184 0 0 0 21.945-12.015l70.385-71.731c10.271-10.551 10.271-27.356-0.005-37.907a26.002 26.002 0 0 0-18.621-7.858 25.995 25.995 0 0 0-18.616 7.858l-28.76 29.318V521.537a26.332 26.332 0 0 0-39.638-23.205 26.348 26.348 0 0 0-13.022 23.205v223.465l-30.604-31.173a25.984 25.984 0 0 0-18.621-7.858 26.006 26.006 0 0 0-18.618 7.858c-10.281 10.55-10.281 27.373 0.003 37.929" fill="#0CA2EF" p-id="10534"></path><path d="M764.275 324.74c98.217 22.688 168.616 108.985 171.11 209.756 2.495 100.768-63.541 190.449-160.509 217.967a26.206 26.206 0 0 1-33.064-25.412 26.568 26.568 0 0 1 19.485-25.411c71.967-20.871 121.52-86.748 121.603-161.683a166.38 166.38 0 0 0-37.18-105.49 168.9 168.9 0 0 0-93.204-58.471 52.006 52.006 0 0 1-36.081-29.492c-45.31-102.814-152.054-164.378-263.744-152.107-111.679 12.271-202.511 95.542-224.417 205.741a52.651 52.651 0 0 1-29.262 37.477c-56.323 26.363-88.938 86.304-80.484 147.915 8.449 61.608 56.001 110.551 117.341 120.779a26.295 26.295 0 0 1 20.535 16.428 26.303 26.303 0 0 1-3.954 26.004 26.302 26.302 0 0 1-24.498 9.581c-84.228-13.74-149.678-80.745-161.441-165.271-11.759-84.523 32.918-166.848 110.196-203.056 26.294-132.624 135.502-232.914 269.883-247.841 134.382-14.921 262.935 58.959 317.686 182.581M688.73 865.467c0-10.761-9.225-19.976-19.978-19.976H306.117c-10.752 0-19.979 9.215-19.979 19.976 0 10.756 9.227 19.976 19.979 19.976h362.636c10.753-0.001 19.977-9.22 19.977-19.976z m0 0" fill="#0CA2EF" p-id="10535"></path></svg>