<?xml version="1.0" standalone="no"?><!DOCTYPE svg PUBLIC "-//W3C//DTD SVG 1.1//EN" "http://www.w3.org/Graphics/SVG/1.1/DTD/svg11.dtd"><svg t="1678596958653" class="icon" viewBox="0 0 1024 1024" version="1.1" xmlns="http://www.w3.org/2000/svg" p-id="6108" xmlns:xlink="http://www.w3.org/1999/xlink" width="1024" height="1024"><path d="M512 671.703235a213.786926 213.786926 0 0 1-211.70233-215.408279V215.408279a211.70233 211.70233 0 1 1 423.40466 0v240.886677A219.809093 219.809093 0 0 1 697.297444 559.135037a34.743271 34.743271 0 0 1-61.379778-32.658674 147.311468 147.311468 0 0 0 17.603257-69.486542V215.408279a142.215788 142.215788 0 1 0-284.431577 0v240.886677A144.300385 144.300385 0 0 0 512 602.216693a140.131192 140.131192 0 0 0 56.747342-12.044334 34.743271 34.743271 0 1 1 28.25786 63.464375A205.911785 205.911785 0 0 1 512 671.703235z" fill="#00DBDE" p-id="6109"></path><path d="M512 813.455779A356.234336 356.234336 0 0 1 152.986202 460.927392v-42.155169a34.743271 34.743271 0 0 1 69.486542 0v42.155169A286.747795 286.747795 0 0 0 512 743.969238 286.747795 286.747795 0 0 0 801.527256 460.927392v-36.596245a34.743271 34.743271 0 0 1 69.486542 0v36.596245A356.234336 356.234336 0 0 1 512 813.455779z" fill="#00DBDE" p-id="6110"></path><path d="M477.256729 779.407374m29.879213 0l9.728116 0q29.879213 0 29.879213 29.879213l0 125.539018q0 29.879213-29.879213 29.879213l-9.728116 0q-29.879213 0-29.879213-29.879213l0-125.539018q0-29.879213 29.879213-29.879213Z" fill="#00DBDE" p-id="6111"></path><path d="M640.086858 924.402624m0 34.743271l0 0q0 34.743271-34.743271 34.74327l-185.065822 0q-34.743271 0-34.743271-34.74327l0 0q0-34.743271 34.743271-34.743271l185.065822 0q34.743271 0 34.743271 34.743271Z" fill="#FC00FF" p-id="6112"></path></svg>